<svg width="400" height="400" viewBox="0 0 400 400" xmlns="http://www.w3.org/2000/svg">
  <defs>
    <style>
      .bg { fill: #0d1117; }
    </style>
  </defs>

  <!-- 背景円 -->
  <circle cx="200" cy="200" r="190" fill="#0d1117" stroke="#2a3244" stroke-width="1"/>

  <!-- 星 -->
  <circle cx="60" cy="60" r="1.5" fill="#ffffff" opacity="0.5"/>
  <circle cx="340" cy="80" r="1" fill="#ffffff" opacity="0.4"/>
  <circle cx="80" cy="320" r="1.2" fill="#ffffff" opacity="0.3"/>
  <circle cx="350" cy="300" r="1.5" fill="#ffffff" opacity="0.5"/>
  <circle cx="120" cy="100" r="1" fill="#ffffff" opacity="0.3"/>
  <circle cx="310" cy="150" r="1" fill="#ffffff" opacity="0.4"/>

  <!-- ぎゅん太 本体（ごろ寝ポーズ） -->

  <!-- 胴体 -->
  <ellipse cx="200" cy="265" rx="80" ry="38" fill="#7a8098"/>
  <!-- 胴体の縞 -->
  <ellipse cx="185" cy="258" rx="12" ry="28" fill="#6a7088" opacity="0.5"/>
  <ellipse cx="210" cy="262" rx="10" ry="26" fill="#6a7088" opacity="0.4"/>
  <ellipse cx="230" cy="260" rx="8" ry="22" fill="#6a7088" opacity="0.4"/>

  <!-- お腹（明るい） -->
  <ellipse cx="200" cy="270" rx="45" ry="22" fill="#c8c0b0" opacity="0.6"/>

  <!-- しっぽ -->
  <path d="M275 265 Q310 240 320 220 Q325 205 315 200" stroke="#7a8098" stroke-width="14" fill="none" stroke-linecap="round"/>
  <path d="M275 265 Q310 240 320 220 Q325 205 315 200" stroke="#6a7088" stroke-width="8" fill="none" stroke-linecap="round" opacity="0.5"/>

  <!-- 前足（伸ばしてる） -->
  <ellipse cx="148" cy="278" rx="28" ry="10" fill="#7a8098" transform="rotate(-15 148 278)"/>
  <ellipse cx="120" cy="284" rx="22" ry="9" fill="#8a90a8" transform="rotate(-10 120 284)"/>
  <!-- 肉球 -->
  <ellipse cx="104" cy="287" rx="8" ry="6" fill="#c8a0b0"/>
  <circle cx="98" cy="282" r="3" fill="#c8a0b0"/>
  <circle cx="110" cy="281" r="3" fill="#c8a0b0"/>

  <!-- 後ろ足 -->
  <ellipse cx="255" cy="282" rx="20" ry="10" fill="#7a8098" transform="rotate(20 255 282)"/>

  <!-- 頭 -->
  <ellipse cx="170" cy="210" rx="52" ry="48" fill="#8a90a8"/>

  <!-- 頭の縞模様 -->
  <path d="M155 175 Q158 165 162 175" stroke="#6a7088" stroke-width="2.5" fill="none" stroke-linecap="round"/>
  <path d="M168 172 Q171 162 174 172" stroke="#6a7088" stroke-width="2.5" fill="none" stroke-linecap="round"/>
  <path d="M181 175 Q184 165 187 175" stroke="#6a7088" stroke-width="2.5" fill="none" stroke-linecap="round"/>

  <!-- 耳 -->
  <polygon points="133,182 120,152 152,172" fill="#8a90a8"/>
  <polygon points="135,180 124,157 150,172" fill="#d4a0a8"/>
  <polygon points="195,178 195,150 215,172" fill="#8a90a8"/>
  <polygon points="196,177 197,155 212,172" fill="#d4a0a8"/>

  <!-- 顔の明るいエリア（マズル） -->
  <ellipse cx="165" cy="222" rx="30" ry="22" fill="#b0a890" opacity="0.5"/>

  <!-- 目（黄緑・大きくてくりくり） -->
  <!-- 左目 -->
  <ellipse cx="153" cy="205" rx="13" ry="14" fill="#c8d420"/>
  <ellipse cx="153" cy="205" rx="10" ry="11" fill="#8aaa10"/>
  <ellipse cx="153" cy="205" rx="7" ry="9" fill="#1a1f2e"/>
  <ellipse cx="149" cy="201" rx="2.5" ry="3" fill="#ffffff" opacity="0.9"/>
  <ellipse cx="157" cy="209" rx="1.2" ry="1.5" fill="#ffffff" opacity="0.5"/>

  <!-- 右目 -->
  <ellipse cx="182" cy="203" rx="12" ry="13" fill="#c8d420"/>
  <ellipse cx="182" cy="203" rx="9" ry="10" fill="#8aaa10"/>
  <ellipse cx="182" cy="203" rx="6.5" ry="8.5" fill="#1a1f2e"/>
  <ellipse cx="178" cy="199" rx="2.2" ry="2.8" fill="#ffffff" opacity="0.9"/>
  <ellipse cx="186" cy="207" rx="1" ry="1.3" fill="#ffffff" opacity="0.5"/>

  <!-- 鼻（ピンク・上向き） -->
  <ellipse cx="166" cy="222" rx="6" ry="4" fill="#e090a0"/>
  <path d="M162 224 Q166 228 170 224" stroke="#c06878" stroke-width="1.5" fill="none" stroke-linecap="round"/>

  <!-- ひげ（白・長い） -->
  <line x1="140" y1="218" x2="100" y2="212" stroke="#ffffff" stroke-width="1" opacity="0.8"/>
  <line x1="140" y1="222" x2="98" y2="220" stroke="#ffffff" stroke-width="1" opacity="0.7"/>
  <line x1="140" y1="226" x2="100" y2="230" stroke="#ffffff" stroke-width="1" opacity="0.8"/>
  <line x1="192" y1="218" x2="230" y2="212" stroke="#ffffff" stroke-width="1" opacity="0.7"/>
  <line x1="192" y1="222" x2="232" y2="220" stroke="#ffffff" stroke-width="1" opacity="0.6"/>
  <line x1="192" y1="226" x2="230" y2="230" stroke="#ffffff" stroke-width="1" opacity="0.7"/>

  <!-- アイスクリームコーン（小さく添える） -->
  <polygon points="295,195 275,255 315,255" fill="#c8a060"/>
  <!-- コーンの格子 -->
  <line x1="280" y1="245" x2="310" y2="245" stroke="#a07840" stroke-width="1" opacity="0.6"/>
  <line x1="277" y1="252" x2="313" y2="252" stroke="#a07840" stroke-width="1" opacity="0.6"/>
  <line x1="283" y1="238" x2="307" y2="238" stroke="#a07840" stroke-width="1" opacity="0.6"/>
  <line x1="286" y1="230" x2="304" y2="230" stroke="#a07840" stroke-width="1" opacity="0.6"/>
  <line x1="289" y1="222" x2="301" y2="222" stroke="#a07840" stroke-width="1" opacity="0.6"/>
  <!-- ジェラートスクープ1 -->
  <ellipse cx="295" cy="190" rx="22" ry="20" fill="#1D9E75"/>
  <!-- ジェラートスクープ2 -->
  <ellipse cx="300" cy="172" rx="18" ry="17" fill="#9FCFC0"/>
  <!-- ジェラートのつや -->
  <ellipse cx="288" cy="183" rx="5" ry="4" fill="#ffffff" opacity="0.25"/>
  <ellipse cx="294" cy="165" rx="4" ry="3" fill="#ffffff" opacity="0.2"/>

  <!-- テキスト -->
  <text x="200" y="340" text-anchor="middle" font-family="serif" font-size="22" font-weight="500" fill="#f0ede6" letter-spacing="4">夜散歩アイス</text>
  <text x="200" y="360" text-anchor="middle" font-family="sans-serif" font-size="11" fill="#9FCFC0" letter-spacing="3">YORU ARUKI ICE</text>

  <!-- 月 -->
  <circle cx="320" cy="90" r="18" fill="#f5e090" opacity="0.9"/>
  <circle cx="328" cy="84" r="15" fill="#0d1117"/>

  <!-- 川の波線（下部） -->
  <path d="M40 385 Q80 378 120 385 Q160 392 200 383 Q240 375 280 383 Q320 391 360 383" stroke="#1D9E75" stroke-width="1.5" fill="none" opacity="0.4" stroke-linecap="round"/>
  <path d="M40 390 Q80 383 120 390 Q160 397 200 388 Q240 380 280 388 Q320 396 360 388" stroke="#1a3a5c" stroke-width="3" fill="none" opacity="0.3" stroke-linecap="round"/>

</svg>
